<mxfile host="app.diagrams.net" modified="2023-11-05T23:04:06.846Z" agent="Mozilla/5.0 (Windows NT 10.0; Win64; x64) AppleWebKit/537.36 (KHTML, like Gecko) Chrome/119.0.0.0 Safari/537.36" etag="25UE668qbj7l8bDEBQvj" version="22.0.8" type="google" pages="2">
  <diagram id="vW8oSsLvnWBD_dFaTI54" name="Page-2">
    <mxGraphModel grid="1" page="1" gridSize="10" guides="1" tooltips="1" connect="1" arrows="1" fold="1" pageScale="1" pageWidth="850" pageHeight="1100" math="0" shadow="0">
      <root>
        <mxCell id="0" />
        <mxCell id="1" parent="0" />
        <mxCell id="W177_jg5TzH_JHXyXcgy-1" value="Database Administrator" style="swimlane;whiteSpace=wrap" vertex="1" parent="1">
          <mxGeometry x="54.5" y="-4" width="300" height="984" as="geometry" />
        </mxCell>
        <mxCell id="W177_jg5TzH_JHXyXcgy-2" value="" style="edgeStyle=orthogonalEdgeStyle;rounded=0;orthogonalLoop=1;jettySize=auto;html=1;" edge="1" parent="W177_jg5TzH_JHXyXcgy-1" source="W177_jg5TzH_JHXyXcgy-4">
          <mxGeometry relative="1" as="geometry" />
        </mxCell>
        <mxCell id="W177_jg5TzH_JHXyXcgy-3" value="" style="edgeStyle=orthogonalEdgeStyle;rounded=0;orthogonalLoop=1;jettySize=auto;html=1;" edge="1" parent="W177_jg5TzH_JHXyXcgy-1" source="W177_jg5TzH_JHXyXcgy-4">
          <mxGeometry relative="1" as="geometry">
            <mxPoint x="125.5" y="92" as="targetPoint" />
          </mxGeometry>
        </mxCell>
        <mxCell id="W177_jg5TzH_JHXyXcgy-4" value="" style="ellipse;shape=startState;fillColor=#000000;strokeColor=#ff0000;" vertex="1" parent="W177_jg5TzH_JHXyXcgy-1">
          <mxGeometry x="110.5" y="42" width="30" height="30" as="geometry" />
        </mxCell>
        <mxCell id="W177_jg5TzH_JHXyXcgy-13" value="" style="ellipse;shape=endState;fillColor=#000000;strokeColor=#ff0000" vertex="1" parent="W177_jg5TzH_JHXyXcgy-1">
          <mxGeometry x="110.5" y="934" width="30" height="30" as="geometry" />
        </mxCell>
        <mxCell id="W177_jg5TzH_JHXyXcgy-40" value="Login" style="rounded=1;whiteSpace=wrap;html=1;arcSize=40;fontColor=#000000;fillColor=#ffffc0;strokeColor=#ff0000;" vertex="1" parent="W177_jg5TzH_JHXyXcgy-1">
          <mxGeometry x="65.5" y="94" width="120" height="40" as="geometry" />
        </mxCell>
        <mxCell id="W177_jg5TzH_JHXyXcgy-44" value="yes" style="edgeStyle=orthogonalEdgeStyle;html=1;align=left;verticalAlign=top;endArrow=open;endSize=8;strokeColor=#ff0000;rounded=0;exitX=0.5;exitY=1;exitDx=0;exitDy=0;" edge="1" parent="W177_jg5TzH_JHXyXcgy-1" source="W177_jg5TzH_JHXyXcgy-42">
          <mxGeometry x="-1" relative="1" as="geometry">
            <mxPoint x="125.5" y="284" as="targetPoint" />
          </mxGeometry>
        </mxCell>
        <mxCell id="W177_jg5TzH_JHXyXcgy-46" value="" style="edgeStyle=orthogonalEdgeStyle;html=1;verticalAlign=bottom;endArrow=open;endSize=8;strokeColor=#ff0000;rounded=0;" edge="1" parent="W177_jg5TzH_JHXyXcgy-1" source="W177_jg5TzH_JHXyXcgy-45">
          <mxGeometry relative="1" as="geometry">
            <mxPoint x="125.5" y="384" as="targetPoint" />
          </mxGeometry>
        </mxCell>
        <mxCell id="W177_jg5TzH_JHXyXcgy-45" value="Navigate to Hosting Overview" style="rounded=1;whiteSpace=wrap;html=1;arcSize=40;fontColor=#000000;fillColor=#ffffc0;strokeColor=#ff0000;" vertex="1" parent="W177_jg5TzH_JHXyXcgy-1">
          <mxGeometry x="65.5" y="284" width="120" height="40" as="geometry" />
        </mxCell>
        <mxCell id="W177_jg5TzH_JHXyXcgy-48" value="Navigate to Manage databases" style="rounded=1;whiteSpace=wrap;html=1;arcSize=40;fontColor=#000000;fillColor=#ffffc0;strokeColor=#ff0000;" vertex="1" parent="W177_jg5TzH_JHXyXcgy-1">
          <mxGeometry x="65.5" y="384" width="120" height="40" as="geometry" />
        </mxCell>
        <mxCell id="W177_jg5TzH_JHXyXcgy-49" value="" style="edgeStyle=orthogonalEdgeStyle;html=1;verticalAlign=bottom;endArrow=open;endSize=8;strokeColor=#ff0000;rounded=0;" edge="1" parent="W177_jg5TzH_JHXyXcgy-1" source="W177_jg5TzH_JHXyXcgy-48">
          <mxGeometry relative="1" as="geometry">
            <mxPoint x="125.5" y="484" as="targetPoint" />
          </mxGeometry>
        </mxCell>
        <mxCell id="W177_jg5TzH_JHXyXcgy-50" value="Open PHPMyAdmin for Desired Database" style="rounded=1;whiteSpace=wrap;html=1;arcSize=40;fontColor=#000000;fillColor=#ffffc0;strokeColor=#ff0000;" vertex="1" parent="W177_jg5TzH_JHXyXcgy-1">
          <mxGeometry x="65.5" y="484" width="120" height="40" as="geometry" />
        </mxCell>
        <mxCell id="W177_jg5TzH_JHXyXcgy-51" value="" style="edgeStyle=orthogonalEdgeStyle;html=1;verticalAlign=bottom;endArrow=open;endSize=8;strokeColor=#ff0000;rounded=0;" edge="1" parent="W177_jg5TzH_JHXyXcgy-1" source="W177_jg5TzH_JHXyXcgy-50">
          <mxGeometry relative="1" as="geometry">
            <mxPoint x="125.5" y="584" as="targetPoint" />
          </mxGeometry>
        </mxCell>
        <mxCell id="W177_jg5TzH_JHXyXcgy-53" value="Navigate to Export" style="rounded=1;whiteSpace=wrap;html=1;arcSize=40;fontColor=#000000;fillColor=#ffffc0;strokeColor=#ff0000;" vertex="1" parent="W177_jg5TzH_JHXyXcgy-1">
          <mxGeometry x="65.5" y="584" width="120" height="40" as="geometry" />
        </mxCell>
        <mxCell id="W177_jg5TzH_JHXyXcgy-54" value="" style="edgeStyle=orthogonalEdgeStyle;html=1;verticalAlign=bottom;endArrow=open;endSize=8;strokeColor=#ff0000;rounded=0;" edge="1" parent="W177_jg5TzH_JHXyXcgy-1" source="W177_jg5TzH_JHXyXcgy-53">
          <mxGeometry relative="1" as="geometry">
            <mxPoint x="125.5" y="684" as="targetPoint" />
          </mxGeometry>
        </mxCell>
        <mxCell id="W177_jg5TzH_JHXyXcgy-55" value="Select Export parameters and submit" style="rounded=1;whiteSpace=wrap;html=1;arcSize=40;fontColor=#000000;fillColor=#ffffc0;strokeColor=#ff0000;" vertex="1" parent="W177_jg5TzH_JHXyXcgy-1">
          <mxGeometry x="65.5" y="684" width="120" height="40" as="geometry" />
        </mxCell>
        <mxCell id="W177_jg5TzH_JHXyXcgy-61" value="Save to desktop or server file system for future use" style="rounded=1;whiteSpace=wrap;html=1;arcSize=40;fontColor=#000000;fillColor=#ffffc0;strokeColor=#ff0000;" vertex="1" parent="W177_jg5TzH_JHXyXcgy-1">
          <mxGeometry x="65.5" y="844" width="120" height="40" as="geometry" />
        </mxCell>
        <mxCell id="W177_jg5TzH_JHXyXcgy-62" value="" style="edgeStyle=orthogonalEdgeStyle;html=1;verticalAlign=bottom;endArrow=open;endSize=8;strokeColor=#ff0000;rounded=0;" edge="1" parent="W177_jg5TzH_JHXyXcgy-1" source="W177_jg5TzH_JHXyXcgy-61">
          <mxGeometry relative="1" as="geometry">
            <mxPoint x="125.5" y="934" as="targetPoint" />
          </mxGeometry>
        </mxCell>
        <mxCell id="W177_jg5TzH_JHXyXcgy-20" value="IONOS System" style="swimlane;whiteSpace=wrap;startSize=23;" vertex="1" parent="1">
          <mxGeometry x="354.5" y="-4" width="280" height="984" as="geometry" />
        </mxCell>
        <mxCell id="W177_jg5TzH_JHXyXcgy-38" value="Invalid Credentials Notification" style="rounded=1;whiteSpace=wrap;html=1;arcSize=40;fontColor=#000000;fillColor=#ffffc0;strokeColor=#ff0000;" vertex="1" parent="W177_jg5TzH_JHXyXcgy-20">
          <mxGeometry x="80" y="94" width="120" height="40" as="geometry" />
        </mxCell>
        <mxCell id="W177_jg5TzH_JHXyXcgy-42" value="Valid credentials?" style="rhombus;whiteSpace=wrap;html=1;fontColor=#000000;fillColor=#ffffc0;strokeColor=#ff0000;" vertex="1" parent="W177_jg5TzH_JHXyXcgy-20">
          <mxGeometry x="96.63" y="184" width="86.75" height="66" as="geometry" />
        </mxCell>
        <mxCell id="W177_jg5TzH_JHXyXcgy-43" value="no" style="edgeStyle=orthogonalEdgeStyle;html=1;align=left;verticalAlign=bottom;endArrow=open;endSize=8;strokeColor=#ff0000;rounded=0;exitX=0.5;exitY=0;exitDx=0;exitDy=0;entryX=0.5;entryY=1;entryDx=0;entryDy=0;" edge="1" parent="W177_jg5TzH_JHXyXcgy-20" source="W177_jg5TzH_JHXyXcgy-42" target="W177_jg5TzH_JHXyXcgy-38">
          <mxGeometry x="-1" relative="1" as="geometry">
            <mxPoint x="242.25" y="174" as="targetPoint" />
            <Array as="points">
              <mxPoint x="139.75" y="144" />
              <mxPoint x="139.75" y="144" />
            </Array>
          </mxGeometry>
        </mxCell>
        <mxCell id="W177_jg5TzH_JHXyXcgy-57" value="Request SQL Export for DB" style="rounded=1;whiteSpace=wrap;html=1;arcSize=40;fontColor=#000000;fillColor=#ffffc0;strokeColor=#ff0000;" vertex="1" parent="W177_jg5TzH_JHXyXcgy-20">
          <mxGeometry x="80" y="734" width="120" height="40" as="geometry" />
        </mxCell>
        <mxCell id="W177_jg5TzH_JHXyXcgy-26" value="Database" style="swimlane;whiteSpace=wrap;startSize=23;" vertex="1" parent="1">
          <mxGeometry x="634.5" y="-4" width="280" height="984" as="geometry" />
        </mxCell>
        <mxCell id="W177_jg5TzH_JHXyXcgy-63" value="Export Database to SQL" style="swimlane;fontStyle=1;align=center;verticalAlign=middle;childLayout=stackLayout;horizontal=1;startSize=30;horizontalStack=0;resizeParent=0;resizeLast=1;container=0;fontColor=#000000;collapsible=0;rounded=1;arcSize=30;strokeColor=#ff0000;fillColor=#ffffc0;swimlaneFillColor=#ffffc0;dropTarget=0;" vertex="1" parent="W177_jg5TzH_JHXyXcgy-26">
          <mxGeometry x="76" y="724" width="160" height="60" as="geometry" />
        </mxCell>
        <mxCell id="W177_jg5TzH_JHXyXcgy-64" value="Output: .sql file" style="text;html=1;strokeColor=none;fillColor=none;align=center;verticalAlign=middle;spacingLeft=4;spacingRight=4;whiteSpace=wrap;overflow=hidden;rotatable=0;fontColor=#000000;" vertex="1" parent="W177_jg5TzH_JHXyXcgy-63">
          <mxGeometry y="30" width="160" height="30" as="geometry" />
        </mxCell>
        <mxCell id="W177_jg5TzH_JHXyXcgy-39" value="" style="edgeStyle=orthogonalEdgeStyle;html=1;verticalAlign=bottom;endArrow=open;endSize=8;strokeColor=#ff0000;rounded=0;exitX=0;exitY=0.5;exitDx=0;exitDy=0;entryX=1;entryY=0.5;entryDx=0;entryDy=0;" edge="1" parent="1" source="W177_jg5TzH_JHXyXcgy-38" target="W177_jg5TzH_JHXyXcgy-40">
          <mxGeometry relative="1" as="geometry">
            <mxPoint x="270" y="110" as="targetPoint" />
          </mxGeometry>
        </mxCell>
        <mxCell id="W177_jg5TzH_JHXyXcgy-41" value="" style="edgeStyle=orthogonalEdgeStyle;html=1;verticalAlign=bottom;endArrow=open;endSize=8;strokeColor=#ff0000;rounded=0;entryX=0;entryY=0.5;entryDx=0;entryDy=0;exitX=0.5;exitY=1;exitDx=0;exitDy=0;" edge="1" parent="1" source="W177_jg5TzH_JHXyXcgy-40" target="W177_jg5TzH_JHXyXcgy-42">
          <mxGeometry relative="1" as="geometry">
            <mxPoint x="180" y="190" as="targetPoint" />
            <mxPoint x="160" y="170" as="sourcePoint" />
            <Array as="points">
              <mxPoint x="180" y="213" />
            </Array>
          </mxGeometry>
        </mxCell>
        <mxCell id="W177_jg5TzH_JHXyXcgy-56" value="" style="edgeStyle=orthogonalEdgeStyle;html=1;verticalAlign=bottom;endArrow=open;endSize=8;strokeColor=#ff0000;rounded=0;entryX=0;entryY=0.5;entryDx=0;entryDy=0;" edge="1" parent="1" source="W177_jg5TzH_JHXyXcgy-55">
          <mxGeometry relative="1" as="geometry">
            <mxPoint x="434.5" y="750" as="targetPoint" />
            <Array as="points">
              <mxPoint x="180" y="750" />
            </Array>
          </mxGeometry>
        </mxCell>
        <mxCell id="W177_jg5TzH_JHXyXcgy-58" value="" style="edgeStyle=orthogonalEdgeStyle;html=1;verticalAlign=bottom;endArrow=open;endSize=8;strokeColor=#ff0000;rounded=0;exitX=1;exitY=0.5;exitDx=0;exitDy=0;" edge="1" parent="1" source="W177_jg5TzH_JHXyXcgy-57">
          <mxGeometry relative="1" as="geometry">
            <mxPoint x="710" y="750" as="targetPoint" />
          </mxGeometry>
        </mxCell>
        <mxCell id="W177_jg5TzH_JHXyXcgy-65" value="" style="edgeStyle=orthogonalEdgeStyle;html=1;verticalAlign=bottom;endArrow=open;endSize=8;strokeColor=#ff0000;rounded=0;entryX=1;entryY=0.5;entryDx=0;entryDy=0;" edge="1" parent="1" source="W177_jg5TzH_JHXyXcgy-63" target="W177_jg5TzH_JHXyXcgy-61">
          <mxGeometry relative="1" as="geometry">
            <mxPoint x="790.5" y="840" as="targetPoint" />
            <Array as="points">
              <mxPoint x="800" y="860" />
            </Array>
          </mxGeometry>
        </mxCell>
      </root>
    </mxGraphModel>
  </diagram>
  <diagram name="Page-1" id="e7e014a7-5840-1c2e-5031-d8a46d1fe8dd">
    <mxGraphModel grid="1" page="1" gridSize="10" guides="1" tooltips="1" connect="1" arrows="1" fold="1" pageScale="1" pageWidth="1169" pageHeight="826" background="none" math="0" shadow="0">
      <root>
        <mxCell id="0" />
        <mxCell id="1" parent="0" />
        <mxCell id="2" value="Database Administrator" style="swimlane;whiteSpace=wrap" vertex="1" parent="1">
          <mxGeometry x="54.5" y="-4" width="300" height="984" as="geometry" />
        </mxCell>
        <mxCell id="xXK9csAxaLA-ZnAOEcNJ-48" value="" style="edgeStyle=orthogonalEdgeStyle;rounded=0;orthogonalLoop=1;jettySize=auto;html=1;" edge="1" parent="2" source="5">
          <mxGeometry relative="1" as="geometry" />
        </mxCell>
        <mxCell id="xXK9csAxaLA-ZnAOEcNJ-69" value="" style="edgeStyle=orthogonalEdgeStyle;rounded=0;orthogonalLoop=1;jettySize=auto;html=1;" edge="1" parent="2" source="5" target="QdsR1peRyvCcTeTLS2Ma-38">
          <mxGeometry relative="1" as="geometry" />
        </mxCell>
        <mxCell id="5" value="" style="ellipse;shape=startState;fillColor=#000000;strokeColor=#ff0000;" vertex="1" parent="2">
          <mxGeometry x="110.5" y="42" width="30" height="30" as="geometry" />
        </mxCell>
        <mxCell id="xXK9csAxaLA-ZnAOEcNJ-46" value="Login with&lt;br&gt;Credentials" style="ellipse;whiteSpace=wrap;html=1;" vertex="1" parent="2">
          <mxGeometry x="65.5" y="192" width="120" height="80" as="geometry" />
        </mxCell>
        <mxCell id="xXK9csAxaLA-ZnAOEcNJ-50" value="" style="edgeStyle=orthogonalEdgeStyle;rounded=0;orthogonalLoop=1;jettySize=auto;html=1;" edge="1" parent="2" source="QdsR1peRyvCcTeTLS2Ma-38" target="xXK9csAxaLA-ZnAOEcNJ-46">
          <mxGeometry relative="1" as="geometry" />
        </mxCell>
        <mxCell id="QdsR1peRyvCcTeTLS2Ma-38" value="Requires Database Backup" style="ellipse;whiteSpace=wrap;html=1;" vertex="1" parent="2">
          <mxGeometry x="65.5" y="92" width="120" height="80" as="geometry" />
        </mxCell>
        <mxCell id="xXK9csAxaLA-ZnAOEcNJ-71" value="" style="edgeStyle=orthogonalEdgeStyle;rounded=0;orthogonalLoop=1;jettySize=auto;html=1;" edge="1" parent="2" source="xXK9csAxaLA-ZnAOEcNJ-63" target="xXK9csAxaLA-ZnAOEcNJ-70">
          <mxGeometry relative="1" as="geometry" />
        </mxCell>
        <mxCell id="xXK9csAxaLA-ZnAOEcNJ-63" value="Navigate to Hosting Overview" style="ellipse;whiteSpace=wrap;html=1;" vertex="1" parent="2">
          <mxGeometry x="83.25" y="285" width="84.5" height="74" as="geometry" />
        </mxCell>
        <mxCell id="MhAx1Vp3AY4mjapxaCxk-9" style="edgeStyle=orthogonalEdgeStyle;rounded=0;orthogonalLoop=1;jettySize=auto;html=1;exitX=0.5;exitY=1;exitDx=0;exitDy=0;entryX=0.5;entryY=0;entryDx=0;entryDy=0;" edge="1" parent="2" source="xXK9csAxaLA-ZnAOEcNJ-70" target="MhAx1Vp3AY4mjapxaCxk-5">
          <mxGeometry relative="1" as="geometry" />
        </mxCell>
        <mxCell id="xXK9csAxaLA-ZnAOEcNJ-70" value="&lt;div&gt;Navigate to Manage Databases&lt;/div&gt;" style="ellipse;whiteSpace=wrap;html=1;" vertex="1" parent="2">
          <mxGeometry x="80.5" y="384" width="90" height="80" as="geometry" />
        </mxCell>
        <mxCell id="xXK9csAxaLA-ZnAOEcNJ-72" value="Prepare to Export SQL Output" style="ellipse;whiteSpace=wrap;html=1;" vertex="1" parent="2">
          <mxGeometry x="85.5" y="714" width="80" height="80" as="geometry" />
        </mxCell>
        <mxCell id="xXK9csAxaLA-ZnAOEcNJ-49" value="" style="ellipse;shape=endState;fillColor=#000000;strokeColor=#ff0000" vertex="1" parent="2">
          <mxGeometry x="110.5" y="934" width="30" height="30" as="geometry" />
        </mxCell>
        <mxCell id="xXK9csAxaLA-ZnAOEcNJ-80" value="" style="edgeStyle=orthogonalEdgeStyle;rounded=0;orthogonalLoop=1;jettySize=auto;html=1;" edge="1" parent="2" source="xXK9csAxaLA-ZnAOEcNJ-79">
          <mxGeometry relative="1" as="geometry">
            <mxPoint x="125.5" y="934" as="targetPoint" />
          </mxGeometry>
        </mxCell>
        <mxCell id="xXK9csAxaLA-ZnAOEcNJ-79" value="Save to Desktop for Later Use" style="ellipse;whiteSpace=wrap;html=1;" vertex="1" parent="2">
          <mxGeometry x="65.5" y="822" width="120" height="80" as="geometry" />
        </mxCell>
        <mxCell id="MhAx1Vp3AY4mjapxaCxk-14" style="edgeStyle=orthogonalEdgeStyle;rounded=0;orthogonalLoop=1;jettySize=auto;html=1;exitX=0.5;exitY=1;exitDx=0;exitDy=0;entryX=0.5;entryY=0;entryDx=0;entryDy=0;" edge="1" parent="2" source="MhAx1Vp3AY4mjapxaCxk-5" target="MhAx1Vp3AY4mjapxaCxk-7">
          <mxGeometry relative="1" as="geometry" />
        </mxCell>
        <mxCell id="MhAx1Vp3AY4mjapxaCxk-5" value="Open PHPMyAdmin for Desired Database" style="ellipse;whiteSpace=wrap;html=1;" vertex="1" parent="2">
          <mxGeometry x="80.5" y="494" width="90" height="80" as="geometry" />
        </mxCell>
        <mxCell id="MhAx1Vp3AY4mjapxaCxk-13" style="edgeStyle=orthogonalEdgeStyle;rounded=0;orthogonalLoop=1;jettySize=auto;html=1;exitX=0.5;exitY=1;exitDx=0;exitDy=0;entryX=0.5;entryY=0;entryDx=0;entryDy=0;" edge="1" parent="2" source="MhAx1Vp3AY4mjapxaCxk-7" target="xXK9csAxaLA-ZnAOEcNJ-72">
          <mxGeometry relative="1" as="geometry" />
        </mxCell>
        <mxCell id="MhAx1Vp3AY4mjapxaCxk-7" value="Navigate to Export" style="ellipse;whiteSpace=wrap;html=1;" vertex="1" parent="2">
          <mxGeometry x="80.5" y="604" width="90" height="80" as="geometry" />
        </mxCell>
        <mxCell id="3" value="IONOS System" style="swimlane;whiteSpace=wrap;startSize=23;" vertex="1" parent="1">
          <mxGeometry x="354.5" y="-4" width="280" height="984" as="geometry" />
        </mxCell>
        <mxCell id="xXK9csAxaLA-ZnAOEcNJ-53" value="" style="rhombus;whiteSpace=wrap;html=1;" vertex="1" parent="3">
          <mxGeometry x="86" y="209" width="34.5" height="46" as="geometry" />
        </mxCell>
        <mxCell id="xXK9csAxaLA-ZnAOEcNJ-56" value="Notify Credentials are Invalid" style="ellipse;whiteSpace=wrap;html=1;" vertex="1" parent="3">
          <mxGeometry x="61" y="82" width="84.5" height="74" as="geometry" />
        </mxCell>
        <mxCell id="xXK9csAxaLA-ZnAOEcNJ-58" value="" style="endArrow=classic;html=1;rounded=0;exitX=0.5;exitY=0;exitDx=0;exitDy=0;entryX=0.5;entryY=1;entryDx=0;entryDy=0;" edge="1" parent="3" source="xXK9csAxaLA-ZnAOEcNJ-53" target="xXK9csAxaLA-ZnAOEcNJ-56">
          <mxGeometry relative="1" as="geometry">
            <mxPoint x="96" y="152" as="sourcePoint" />
            <mxPoint x="256" y="152" as="targetPoint" />
          </mxGeometry>
        </mxCell>
        <mxCell id="xXK9csAxaLA-ZnAOEcNJ-59" value="&lt;div&gt;[Invalid Credentials]&lt;/div&gt;" style="edgeLabel;resizable=0;html=1;align=center;verticalAlign=middle;" connectable="0" vertex="1" parent="xXK9csAxaLA-ZnAOEcNJ-58">
          <mxGeometry relative="1" as="geometry" />
        </mxCell>
        <mxCell id="M98CSpyfv4FZjPLPUKDP-5" value="Request DB for SQL&lt;br&gt;Export" style="ellipse;whiteSpace=wrap;html=1;" vertex="1" parent="3">
          <mxGeometry x="80" y="714" width="120" height="80" as="geometry" />
        </mxCell>
        <mxCell id="xXK9csAxaLA-ZnAOEcNJ-44" value="Database" style="swimlane;whiteSpace=wrap;startSize=23;" vertex="1" parent="1">
          <mxGeometry x="634.5" y="-4" width="280" height="984" as="geometry" />
        </mxCell>
        <mxCell id="xXK9csAxaLA-ZnAOEcNJ-78" value="" style="edgeStyle=orthogonalEdgeStyle;rounded=0;orthogonalLoop=1;jettySize=auto;html=1;" edge="1" parent="xXK9csAxaLA-ZnAOEcNJ-44" source="xXK9csAxaLA-ZnAOEcNJ-76" target="xXK9csAxaLA-ZnAOEcNJ-77">
          <mxGeometry relative="1" as="geometry" />
        </mxCell>
        <mxCell id="xXK9csAxaLA-ZnAOEcNJ-76" value="Export Database to&amp;nbsp; SQL" style="ellipse;whiteSpace=wrap;html=1;" vertex="1" parent="xXK9csAxaLA-ZnAOEcNJ-44">
          <mxGeometry x="76" y="714" width="120" height="80" as="geometry" />
        </mxCell>
        <mxCell id="xXK9csAxaLA-ZnAOEcNJ-77" value="SQL Output File" style="whiteSpace=wrap;html=1;" vertex="1" parent="xXK9csAxaLA-ZnAOEcNJ-44">
          <mxGeometry x="76" y="832" width="120" height="60" as="geometry" />
        </mxCell>
        <mxCell id="xXK9csAxaLA-ZnAOEcNJ-64" value="" style="endArrow=classic;html=1;rounded=0;exitX=0.5;exitY=1;exitDx=0;exitDy=0;entryX=1;entryY=0.5;entryDx=0;entryDy=0;" edge="1" parent="1" source="xXK9csAxaLA-ZnAOEcNJ-53" target="xXK9csAxaLA-ZnAOEcNJ-63">
          <mxGeometry relative="1" as="geometry">
            <mxPoint x="460.5" y="397" as="sourcePoint" />
            <mxPoint x="270.5" y="440" as="targetPoint" />
            <Array as="points">
              <mxPoint x="457.5" y="320" />
            </Array>
          </mxGeometry>
        </mxCell>
        <mxCell id="xXK9csAxaLA-ZnAOEcNJ-65" value="Label" style="edgeLabel;resizable=0;html=1;align=center;verticalAlign=middle;" connectable="0" vertex="1" parent="xXK9csAxaLA-ZnAOEcNJ-64">
          <mxGeometry relative="1" as="geometry" />
        </mxCell>
        <mxCell id="xXK9csAxaLA-ZnAOEcNJ-66" value="&lt;div&gt;[Valid Credentials]&lt;/div&gt;" style="edgeLabel;html=1;align=center;verticalAlign=middle;resizable=0;points=[];" vertex="1" connectable="0" parent="xXK9csAxaLA-ZnAOEcNJ-64">
          <mxGeometry x="-0.0251" relative="1" as="geometry">
            <mxPoint as="offset" />
          </mxGeometry>
        </mxCell>
        <mxCell id="xXK9csAxaLA-ZnAOEcNJ-74" style="edgeStyle=orthogonalEdgeStyle;rounded=0;orthogonalLoop=1;jettySize=auto;html=1;exitX=1;exitY=0.5;exitDx=0;exitDy=0;entryX=0;entryY=0.5;entryDx=0;entryDy=0;" edge="1" parent="1" source="xXK9csAxaLA-ZnAOEcNJ-46" target="xXK9csAxaLA-ZnAOEcNJ-53">
          <mxGeometry relative="1" as="geometry">
            <mxPoint x="430.5" y="232" as="targetPoint" />
          </mxGeometry>
        </mxCell>
        <mxCell id="xXK9csAxaLA-ZnAOEcNJ-82" style="edgeStyle=orthogonalEdgeStyle;rounded=0;orthogonalLoop=1;jettySize=auto;html=1;entryX=1.023;entryY=0.581;entryDx=0;entryDy=0;entryPerimeter=0;" edge="1" parent="1" target="xXK9csAxaLA-ZnAOEcNJ-79">
          <mxGeometry relative="1" as="geometry">
            <mxPoint x="237.25757575757575" y="861.1212121212122" as="targetPoint" />
            <mxPoint x="710" y="864" as="sourcePoint" />
          </mxGeometry>
        </mxCell>
        <mxCell id="xXK9csAxaLA-ZnAOEcNJ-83" style="edgeStyle=orthogonalEdgeStyle;rounded=0;orthogonalLoop=1;jettySize=auto;html=1;entryX=1;entryY=0;entryDx=0;entryDy=0;" edge="1" parent="1" source="xXK9csAxaLA-ZnAOEcNJ-56" target="xXK9csAxaLA-ZnAOEcNJ-46">
          <mxGeometry relative="1" as="geometry">
            <Array as="points">
              <mxPoint x="310.5" y="115" />
              <mxPoint x="310.5" y="200" />
            </Array>
          </mxGeometry>
        </mxCell>
        <mxCell id="M98CSpyfv4FZjPLPUKDP-6" style="edgeStyle=orthogonalEdgeStyle;rounded=0;orthogonalLoop=1;jettySize=auto;html=1;entryX=0;entryY=0.5;entryDx=0;entryDy=0;" edge="1" parent="1" source="xXK9csAxaLA-ZnAOEcNJ-72" target="M98CSpyfv4FZjPLPUKDP-5">
          <mxGeometry relative="1" as="geometry" />
        </mxCell>
        <mxCell id="M98CSpyfv4FZjPLPUKDP-7" style="edgeStyle=orthogonalEdgeStyle;rounded=0;orthogonalLoop=1;jettySize=auto;html=1;exitX=1;exitY=0.5;exitDx=0;exitDy=0;entryX=0;entryY=0.5;entryDx=0;entryDy=0;" edge="1" parent="1" source="M98CSpyfv4FZjPLPUKDP-5" target="xXK9csAxaLA-ZnAOEcNJ-76">
          <mxGeometry relative="1" as="geometry" />
        </mxCell>
      </root>
    </mxGraphModel>
  </diagram>
</mxfile>
